<svg width="49" height="49" viewBox="0 0 49 49" fill="none" xmlns="http://www.w3.org/2000/svg"><g clip-path="url(#a)"><path d="M24.512 1.003C11.432 1.003.83 11.57.83 24.604c0 13.035 10.603 23.601 23.682 23.601 13.08 0 23.681-10.566 23.681-23.6 0-13.035-10.602-23.602-23.681-23.602zm0 46.022c-12.426 0-22.497-10.038-22.497-22.42 0-12.383 10.071-22.422 22.497-22.422 12.425 0 22.497 10.039 22.497 22.421 0 12.383-10.072 22.421-22.497 22.421z" fill="url(#b)"/><path d="M47.177 24.602c0 12.475-10.15 22.59-22.668 22.59-12.517 0-22.666-10.115-22.666-22.59 0-12.476 10.149-22.59 22.666-22.59 12.518 0 22.668 10.114 22.668 22.59z" fill="#333"/><path d="M47.008 24.602c0 12.383-10.073 22.42-22.498 22.42S2.013 36.986 2.013 24.603c0-12.383 10.072-22.421 22.497-22.421S47.007 12.22 47.007 24.603z" fill="url(#c)"/><path d="M39.593 24.602c0 8.302-6.753 15.031-15.083 15.031S9.427 32.903 9.427 24.602C9.427 16.3 16.18 9.57 24.51 9.57s15.082 6.73 15.082 15.032z" fill="url(#d)"/><path d="M25.114 9.164l1.566-4.138v4.138h1.19V3.237h-1.788l-1.626 4.244h.015l-1.627-4.244h-1.788v5.927h1.19V5.026l1.567 4.138h1.3zm16.331 2.658l-2.033 2.954 3.193-1.565.866 1.035-5.026 2.515-1.015-1.225 1.948-2.928-.012-.014-3.24 1.382-1.027-1.217 3.389-4.472.866 1.036-2.122 2.848 3.284-1.46.929 1.111z" fill="#000"/><path d="M13.977 10.69c-.48-.464-1.218-.604-1.913-.174a1.31 1.31 0 0 0 .009-.886c-.3-.543-.405-.611-.65-.817-.798-.667-1.639-.098-2.239.615l-2.902 3.447 4.562 3.815 3.06-3.634c.7-.83.808-1.654.073-2.366zm-5.902 1.662l1.743-2.07c.202-.24.66-.23.952.015.323.27.324.652.107.91l-1.724 2.047-1.078-.902zm4.81.344l-1.818 2.159-1.138-.954 1.83-2.175c.208-.246.67-.317.98-.057.351.294.386.741.145 1.027z" fill="#333"/><path d="M25.127 8.935l1.566-4.138v4.138h1.19V3.008h-1.788l-1.627 4.244h.016l-1.627-4.244H21.07v5.927h1.19V4.797l1.567 4.138h1.3z" fill="url(#e)"/><path d="M41.456 11.424l-2.032 2.955 3.194-1.566.865 1.036-5.025 2.515-1.016-1.226 1.949-2.927-.012-.015-3.242 1.383-1.026-1.218 3.39-4.472.865 1.036-2.121 2.848 3.283-1.46.928 1.111z" fill="url(#f)"/><path d="M13.764 10.573c-.478-.463-1.218-.603-1.912-.174.132-.343.078-.692.008-.885-.3-.544-.404-.612-.65-.818-.8-.667-1.638-.098-2.238.616L6.07 12.76l4.563 3.814 3.06-3.634c.698-.831.807-1.654.072-2.366zm-5.902 1.662l1.743-2.07c.202-.24.658-.23.952.015.323.27.324.653.106.91L8.94 13.137l-1.078-.902zm4.81.344l-1.817 2.159-1.14-.953 1.832-2.176c.207-.245.668-.317.979-.057.353.295.387.74.146 1.027z" fill="url(#g)"/><path d="M9.929 24.602c0-8.025 6.528-14.532 14.58-14.532 8.054 0 14.581 6.507 14.581 14.532 0 8.026-6.527 14.532-14.58 14.532S9.929 32.628 9.929 24.602z" fill="url(#h)"/><path d="M10.348 24.602c0-7.794 6.34-14.114 14.162-14.114 7.821 0 14.162 6.32 14.162 14.114 0 7.795-6.34 14.114-14.162 14.114-7.821 0-14.162-6.319-14.162-14.114z" fill="url(#i)"/><path d="M10.326 24.602H24.51V10.466c-7.834 0-14.184 6.329-14.184 14.136z" fill="url(#j)"/><path d="M24.51 24.602v14.136c7.834 0 14.184-6.33 14.184-14.136H24.51z" fill="url(#k)"/><path d="M38.81 24.351H24.76V10.35h-.502v14h-14.05v.501h14.05v14.003h.503V24.852h14.05v-.5z" fill="url(#l)"/><path d="M24.761 10.745c7.482.133 13.52 6.15 13.654 13.606h.25c-.133-7.595-6.283-13.724-13.904-13.857v.252z" fill="url(#m)"/><path d="M10.58 24.35c.133-7.467 6.18-13.493 13.671-13.626v-.25c-7.631.133-13.788 6.27-13.922 13.875h.251z" fill="#C2D7E8"/><path d="M24.258 38.459c-7.482-.133-13.52-6.15-13.653-13.607h-.251c.134 7.595 6.284 13.725 13.904 13.858v-.251z" fill="url(#n)"/><path d="M38.415 24.852c-.134 7.457-6.172 13.475-13.654 13.607v.25c7.621-.132 13.772-6.262 13.905-13.857h-.25z" fill="#12404F"/><path d="M23.99 10.474v13.602H10.34v.268h13.917v-13.87h-.268z" fill="url(#o)"/><path d="M23.966 38.578V25.14H10.454v-.265h13.778v13.703h-.266z" fill="url(#p)"/><path d="M25.05 38.578V25.14h13.483v-.265H24.784v13.703h.265z" fill="url(#q)"/><path d="M25.05 10.594v13.438h13.483v.265H24.784V10.594h.265z" fill="url(#r)"/></g><defs><linearGradient id="b" x1="-2.637" y1="-1.541" x2="47.446" y2="47.02" gradientUnits="userSpaceOnUse"><stop stop-color="#DFF4FF"/><stop offset=".098" stop-color="#D6EAF5"/><stop offset=".268" stop-color="#BFD0D9"/><stop offset=".488" stop-color="#98A5AC"/><stop offset=".747" stop-color="#646B6E"/><stop offset="1" stop-color="#2B2B2B"/></linearGradient><radialGradient id="c" cx="0" cy="0" r="1" gradientUnits="userSpaceOnUse" gradientTransform="matrix(33.6454 0 0 33.5311 .533 2.562)"><stop stop-color="#fff"/><stop offset=".306" stop-color="#A8A8A8"/><stop offset=".646" stop-color="#4F4F4F"/><stop offset=".885" stop-color="#161616"/><stop offset="1"/></radialGradient><linearGradient id="d" x1="41.801" y1="41.254" x2="9.903" y2="10.325" gradientUnits="userSpaceOnUse"><stop stop-color="#DFF4FF"/><stop offset=".086" stop-color="#D6EAF5"/><stop offset=".233" stop-color="#BED0D9"/><stop offset=".424" stop-color="#96A4AC"/><stop offset=".652" stop-color="#5F686D"/><stop offset=".907" stop-color="#1A1D1E"/><stop offset="1"/></linearGradient><radialGradient id="e" cx="0" cy="0" r="1" gradientUnits="userSpaceOnUse" gradientTransform="matrix(80.8449 0 0 80.5704 -5.51 -.853)"><stop stop-color="#fff"/><stop offset=".31" stop-color="#FDFDFD"/><stop offset=".451" stop-color="#F6F6F6"/><stop offset=".557" stop-color="#E9E9E9"/><stop offset=".646" stop-color="#D7D7D7"/><stop offset=".724" stop-color="#BFBFBF"/><stop offset=".794" stop-color="#A2A2A2"/><stop offset=".859" stop-color="gray"/><stop offset=".92" stop-color="#575757"/><stop offset=".975" stop-color="#2B2B2B"/><stop offset="1" stop-color="#141414"/></radialGradient><radialGradient id="f" cx="0" cy="0" r="1" gradientUnits="userSpaceOnUse" gradientTransform="matrix(80.8518 0 0 80.5772 -5.513 -.853)"><stop stop-color="#fff"/><stop offset=".31" stop-color="#FDFDFD"/><stop offset=".451" stop-color="#F6F6F6"/><stop offset=".557" stop-color="#E9E9E9"/><stop offset=".646" stop-color="#D7D7D7"/><stop offset=".724" stop-color="#BFBFBF"/><stop offset=".794" stop-color="#A2A2A2"/><stop offset=".859" stop-color="gray"/><stop offset=".92" stop-color="#575757"/><stop offset=".975" stop-color="#2B2B2B"/><stop offset="1" stop-color="#141414"/></radialGradient><radialGradient id="g" cx="0" cy="0" r="1" gradientUnits="userSpaceOnUse" gradientTransform="matrix(80.9137 0 0 80.639 -5.518 -.876)"><stop stop-color="#fff"/><stop offset=".31" stop-color="#FDFDFD"/><stop offset=".451" stop-color="#F6F6F6"/><stop offset=".557" stop-color="#E9E9E9"/><stop offset=".646" stop-color="#D7D7D7"/><stop offset=".724" stop-color="#BFBFBF"/><stop offset=".794" stop-color="#A2A2A2"/><stop offset=".859" stop-color="gray"/><stop offset=".92" stop-color="#575757"/><stop offset=".975" stop-color="#2B2B2B"/><stop offset="1" stop-color="#141414"/></radialGradient><radialGradient id="h" cx="0" cy="0" r="1" gradientUnits="userSpaceOnUse" gradientTransform="matrix(21.8063 0 0 21.7323 8.97 10.318)"><stop stop-color="#E6E6E6"/><stop offset=".104" stop-color="#D6D6D6"/><stop offset=".307" stop-color="#ADADAD"/><stop offset=".588" stop-color="#6C6C6C"/><stop offset=".933" stop-color="#121212"/><stop offset="1"/></radialGradient><radialGradient id="i" cx="0" cy="0" r="1" gradientUnits="userSpaceOnUse" gradientTransform="matrix(31.7126 0 0 31.605 14.934 13.24)"><stop stop-color="#fff"/><stop offset=".344" stop-color="#FDFDFD"/><stop offset=".481" stop-color="#F6F6F6"/><stop offset=".582" stop-color="#EAEAEA"/><stop offset=".665" stop-color="#D8D8D8"/><stop offset=".737" stop-color="#C2C2C2"/><stop offset=".802" stop-color="#A6A6A6"/><stop offset=".86" stop-color="#848484"/><stop offset=".913" stop-color="#5F5F5F"/><stop offset=".949" stop-color="#404040"/><stop offset=".957" stop-color="#404040"/><stop offset="1"/></radialGradient><radialGradient id="j" cx="0" cy="0" r="1" gradientUnits="userSpaceOnUse" gradientTransform="matrix(56.1635 0 0 55.9728 5.622 1.26)"><stop offset=".169" stop-color="#fff"/><stop offset=".196" stop-color="#E0EFF7"/><stop offset=".241" stop-color="#B2D9EC"/><stop offset=".287" stop-color="#8BC5E2"/><stop offset=".335" stop-color="#6BB5DA"/><stop offset=".384" stop-color="#52A9D4"/><stop offset=".436" stop-color="#41A0CF"/><stop offset=".491" stop-color="#369BCD"/><stop offset=".556" stop-color="#39C"/><stop offset=".606" stop-color="#3396C8"/><stop offset=".655" stop-color="#328EBC"/><stop offset=".705" stop-color="#3180A8"/><stop offset=".754" stop-color="#2F6D8C"/><stop offset=".803" stop-color="#2D5468"/><stop offset=".851" stop-color="#2A373D"/><stop offset=".871" stop-color="#292929"/></radialGradient><radialGradient id="k" cx="0" cy="0" r="1" gradientUnits="userSpaceOnUse" gradientTransform="matrix(56.1623 0 0 55.9717 5.623 1.26)"><stop offset=".169" stop-color="#fff"/><stop offset=".196" stop-color="#E0EFF7"/><stop offset=".241" stop-color="#B2D9EC"/><stop offset=".287" stop-color="#8BC5E2"/><stop offset=".335" stop-color="#6BB5DA"/><stop offset=".384" stop-color="#52A9D4"/><stop offset=".436" stop-color="#41A0CF"/><stop offset=".491" stop-color="#369BCD"/><stop offset=".556" stop-color="#39C"/><stop offset=".606" stop-color="#3396C8"/><stop offset=".655" stop-color="#328EBC"/><stop offset=".705" stop-color="#3180A8"/><stop offset=".754" stop-color="#2F6D8C"/><stop offset=".803" stop-color="#2D5468"/><stop offset=".851" stop-color="#2A373D"/><stop offset=".871" stop-color="#292929"/></radialGradient><radialGradient id="l" cx="0" cy="0" r="1" gradientUnits="userSpaceOnUse" gradientTransform="matrix(21.3884 0 0 21.3158 9.267 10.591)"><stop stop-color="#E6E6E6"/><stop offset=".104" stop-color="#D6D6D6"/><stop offset=".307" stop-color="#ADADAD"/><stop offset=".588" stop-color="#6C6C6C"/><stop offset=".933" stop-color="#121212"/><stop offset="1"/></radialGradient><linearGradient id="m" x1="21.705" y1="5.269" x2="42.495" y2="25.427" gradientUnits="userSpaceOnUse"><stop stop-color="#F0F4FF"/><stop offset=".109" stop-color="#EBEFF9"/><stop offset=".247" stop-color="#DCE0EA"/><stop offset=".403" stop-color="#C4C7CF"/><stop offset=".57" stop-color="#A2A4AB"/><stop offset=".747" stop-color="#76777C"/><stop offset=".929" stop-color="#414243"/><stop offset="1" stop-color="#2B2B2B"/></linearGradient><linearGradient id="n" x1="4.775" y1="22.228" x2="25.565" y2="42.387" gradientUnits="userSpaceOnUse"><stop stop-color="#F0F4FF"/><stop offset=".109" stop-color="#EBEFF9"/><stop offset=".247" stop-color="#DCE0EA"/><stop offset=".403" stop-color="#C4C7CF"/><stop offset=".57" stop-color="#A2A4AB"/><stop offset=".747" stop-color="#76777C"/><stop offset=".929" stop-color="#414243"/><stop offset="1" stop-color="#2B2B2B"/></linearGradient><linearGradient id="o" x1="14.866" y1="15.066" x2="25.646" y2="25.518" gradientUnits="userSpaceOnUse"><stop stop-color="#C2D7E8"/><stop offset=".134" stop-color="#BACFE1"/><stop offset=".343" stop-color="#A4BACD"/><stop offset=".6" stop-color="#8098AC"/><stop offset=".894" stop-color="#4E697F"/><stop offset="1" stop-color="#3A566D"/></linearGradient><linearGradient id="p" x1="9.449" y1="17.618" x2="30.03" y2="37.573" gradientUnits="userSpaceOnUse"><stop stop-color="#F0F4FF"/><stop offset=".097" stop-color="#E8EBF6"/><stop offset=".257" stop-color="#D1D4DD"/><stop offset=".459" stop-color="#ABAEB5"/><stop offset=".695" stop-color="#78797D"/><stop offset=".958" stop-color="#363637"/><stop offset="1" stop-color="#2B2B2B"/></linearGradient><linearGradient id="q" x1="24.668" y1="24.994" x2="31.887" y2="31.994" gradientUnits="userSpaceOnUse"><stop stop-color="#D9DEF0"/><stop offset=".123" stop-color="#D4DAEC"/><stop offset=".263" stop-color="#C7CFE2"/><stop offset=".411" stop-color="#B0BCD1"/><stop offset=".566" stop-color="#90A1B8"/><stop offset=".725" stop-color="#677F99"/><stop offset=".885" stop-color="#355674"/><stop offset=".972" stop-color="#173D5D"/></linearGradient><linearGradient id="r" x1="17.259" y1="10.071" x2="37.817" y2="30.004" gradientUnits="userSpaceOnUse"><stop stop-color="#F0F4FF"/><stop offset=".109" stop-color="#EBEFF9"/><stop offset=".247" stop-color="#DCE0EA"/><stop offset=".403" stop-color="#C4C7CF"/><stop offset=".57" stop-color="#A2A4AB"/><stop offset=".747" stop-color="#76777C"/><stop offset=".929" stop-color="#414243"/><stop offset="1" stop-color="#2B2B2B"/></linearGradient><clipPath id="a"><path fill="#fff" transform="translate(.796 .962)" d="M0 0h47.424v47.263H0z"/></clipPath></defs></svg>